<svg width="1440" height="1024" viewBox="0 0 1440 1024" fill="none" xmlns="http://www.w3.org/2000/svg">
<g filter="url(#filter0_f_164_11)">
<path d="M921.275 774.618C921.471 774.67 921.656 774.757 921.821 774.874L985.822 820.137L985.803 820.123L921.302 775.726C921.102 775.588 920.935 775.409 920.812 775.2V775.2C920.631 774.893 920.912 774.522 921.256 774.613L921.275 774.618Z" fill="white" fill-opacity="0.5"/>
</g>
<g filter="url(#filter1_f_164_11)">
<path d="M1245.28 328.618C1245.47 328.67 1245.66 328.757 1245.82 328.874L1309.82 374.137L1309.8 374.123L1245.3 329.726C1245.1 329.588 1244.93 329.409 1244.81 329.2V329.2C1244.63 328.893 1244.91 328.522 1245.26 328.613L1245.28 328.618Z" fill="white" fill-opacity="0.5"/>
</g>
<g filter="url(#filter2_f_164_11)">
<ellipse cx="719.876" cy="526.943" rx="992" ry="62.8532" transform="rotate(-15.4558 719.876 526.943)" fill="url(#paint0_diamond_164_11)"/>
</g>
<g filter="url(#filter3_f_164_11)">
<rect x="992.236" y="328" width="172" height="26" rx="13" transform="rotate(13.8789 992.236 328)" fill="#01090B"/>
</g>
<g filter="url(#filter4_f_164_11)">
<rect x="335" y="804.019" width="172" height="26" rx="13" transform="rotate(-49.6173 335 804.019)" fill="#01090B"/>
</g>
<g filter="url(#filter5_f_164_11)">
<rect x="207" y="483.751" width="23.3028" height="66.5117" rx="11.6514" transform="rotate(-49.6173 207 483.751)" fill="#01090B"/>
</g>
<g filter="url(#filter6_f_164_11)">
<path d="M900.275 356.618C900.471 356.67 900.656 356.757 900.821 356.874L964.822 402.137L964.803 402.123L900.302 357.726C900.102 357.588 899.935 357.409 899.812 357.2V357.2C899.631 356.893 899.912 356.522 900.256 356.613L900.275 356.618Z" fill="white" fill-opacity="0.5"/>
</g>
<g filter="url(#filter7_f_164_11)">
<path d="M519.275 556.618C519.471 556.67 519.656 556.757 519.821 556.874L583.822 602.137L583.803 602.123L519.302 557.726C519.102 557.588 518.935 557.409 518.812 557.2V557.2C518.631 556.893 518.912 556.522 519.256 556.613L519.275 556.618Z" fill="white" fill-opacity="0.5"/>
</g>
<g filter="url(#filter8_f_164_11)">
<path d="M175.275 708.618C175.471 708.67 175.656 708.757 175.821 708.874L239.822 754.137L239.803 754.123L175.302 709.726C175.102 709.588 174.935 709.409 174.812 709.2V709.2C174.631 708.893 174.912 708.522 175.256 708.613L175.275 708.618Z" fill="white" fill-opacity="0.5"/>
</g>
<g filter="url(#filter9_f_164_11)">
<path d="M121.275 434.618C121.471 434.67 121.656 434.757 121.821 434.874L185.822 480.137L185.803 480.123L121.302 435.726C121.102 435.588 120.935 435.409 120.812 435.2V435.2C120.631 434.893 120.912 434.522 121.256 434.613L121.275 434.618Z" fill="white" fill-opacity="0.5"/>
</g>
<g filter="url(#filter10_f_164_11)">
<path d="M69.2753 173.618C69.4709 173.67 69.6556 173.757 69.8209 173.874L133.822 219.137L133.803 219.123L69.3022 174.726C69.1023 174.588 68.9349 174.409 68.8116 174.2V174.2C68.6307 173.893 68.9124 173.522 69.2562 173.613L69.2753 173.618Z" fill="white" fill-opacity="0.5"/>
</g>
<g filter="url(#filter11_f_164_11)">
<circle cx="980.668" cy="743.668" r="0.5" transform="rotate(-25.7815 980.668 743.668)" fill="white"/>
</g>
<g filter="url(#filter12_f_164_11)">
<circle cx="696.668" cy="779.668" r="0.5" transform="rotate(-25.7815 696.668 779.668)" fill="white"/>
</g>
<g filter="url(#filter13_f_164_11)">
<circle cx="756.668" cy="432.668" r="0.5" transform="rotate(-25.7815 756.668 432.668)" fill="white"/>
</g>
<g filter="url(#filter14_f_164_11)">
<circle cx="216.668" cy="777.668" r="0.5" transform="rotate(-25.7815 216.668 777.668)" fill="white"/>
</g>
<g filter="url(#filter15_f_164_11)">
<circle cx="275.668" cy="394.668" r="0.5" transform="rotate(-25.7815 275.668 394.668)" fill="white"/>
</g>
<g filter="url(#filter16_f_164_11)">
<circle cx="313.668" cy="433.668" r="0.5" transform="rotate(-25.7815 313.668 433.668)" fill="white"/>
</g>
<g filter="url(#filter17_f_164_11)">
<circle cx="1103.67" cy="755.668" r="0.5" transform="rotate(-25.7815 1103.67 755.668)" fill="white"/>
</g>
<g filter="url(#filter18_f_164_11)">
<circle cx="819.668" cy="791.668" r="0.5" transform="rotate(-25.7815 819.668 791.668)" fill="white"/>
</g>
<g filter="url(#filter19_f_164_11)">
<circle cx="627.668" cy="436.668" r="0.5" transform="rotate(-25.7815 627.668 436.668)" fill="white"/>
</g>
<g filter="url(#filter20_f_164_11)">
<circle cx="339.668" cy="789.668" r="0.5" transform="rotate(-25.7815 339.668 789.668)" fill="white"/>
</g>
<g filter="url(#filter21_f_164_11)">
<circle cx="1164.67" cy="627.668" r="0.5" transform="rotate(-25.7815 1164.67 627.668)" fill="white"/>
</g>
<g filter="url(#filter22_f_164_11)">
<circle cx="880.668" cy="663.668" r="0.5" transform="rotate(-25.7815 880.668 663.668)" fill="white"/>
</g>
<g filter="url(#filter23_f_164_11)">
<circle cx="940.668" cy="316.668" r="0.5" transform="rotate(-25.7815 940.668 316.668)" fill="white"/>
</g>
<g filter="url(#filter24_f_164_11)">
<circle cx="400.668" cy="661.668" r="0.5" transform="rotate(-25.7815 400.668 661.668)" fill="white"/>
</g>
<g filter="url(#filter25_f_164_11)">
<circle cx="1011.18" cy="719.18" r="1" transform="rotate(-11.5145 1011.18 719.18)" fill="white" fill-opacity="0.88"/>
</g>
<g filter="url(#filter26_f_164_11)">
<circle cx="727.18" cy="755.18" r="1" transform="rotate(-11.5145 727.18 755.18)" fill="white" fill-opacity="0.88"/>
</g>
<g filter="url(#filter27_f_164_11)">
<circle cx="1102.18" cy="327.179" r="1" transform="rotate(-11.5145 1102.18 327.179)" fill="white" fill-opacity="0.88"/>
</g>
<g filter="url(#filter28_f_164_11)">
<circle cx="787.18" cy="408.18" r="1" transform="rotate(-11.5145 787.18 408.18)" fill="white" fill-opacity="0.88"/>
</g>
<g filter="url(#filter29_f_164_11)">
<circle cx="247.179" cy="753.18" r="1" transform="rotate(-11.5145 247.179 753.18)" fill="white" fill-opacity="0.88"/>
</g>
<g filter="url(#filter30_f_164_11)">
<circle cx="272.18" cy="467.18" r="1" transform="rotate(-11.5145 272.18 467.18)" fill="white" fill-opacity="0.88"/>
</g>
<g filter="url(#filter31_f_164_11)">
<circle cx="1104.18" cy="604.18" r="1" transform="rotate(-11.5145 1104.18 604.18)" fill="white" fill-opacity="0.88"/>
</g>
<g filter="url(#filter32_f_164_11)">
<circle cx="820.18" cy="640.18" r="1" transform="rotate(-11.5145 820.18 640.18)" fill="white" fill-opacity="0.88"/>
</g>
<g filter="url(#filter33_f_164_11)">
<circle cx="628.18" cy="285.179" r="1" transform="rotate(-11.5145 628.18 285.179)" fill="white" fill-opacity="0.88"/>
</g>
<g filter="url(#filter34_f_164_11)">
<circle cx="449.18" cy="203.179" r="1" transform="rotate(-11.5145 449.18 203.179)" fill="white" fill-opacity="0.88"/>
</g>
<g filter="url(#filter35_f_164_11)">
<circle cx="340.18" cy="638.18" r="1" transform="rotate(-11.5145 340.18 638.18)" fill="white" fill-opacity="0.88"/>
</g>
<g filter="url(#filter36_f_164_11)">
<circle cx="1134.18" cy="731.18" r="1" transform="rotate(-11.5145 1134.18 731.18)" fill="white" fill-opacity="0.88"/>
</g>
<g filter="url(#filter37_f_164_11)">
<circle cx="850.18" cy="767.18" r="1" transform="rotate(-11.5145 850.18 767.18)" fill="white" fill-opacity="0.88"/>
</g>
<g filter="url(#filter38_f_164_11)">
<circle cx="910.18" cy="420.18" r="1" transform="rotate(-11.5145 910.18 420.18)" fill="white" fill-opacity="0.88"/>
</g>
<g filter="url(#filter39_f_164_11)">
<circle cx="370.18" cy="765.18" r="1" transform="rotate(-11.5145 370.18 765.18)" fill="white" fill-opacity="0.88"/>
</g>
<g filter="url(#filter40_f_164_11)">
<circle cx="274.18" cy="396.18" r="1" transform="rotate(-11.5145 274.18 396.18)" fill="white" fill-opacity="0.88"/>
</g>
<defs>
<filter id="filter0_f_164_11" x="919.355" y="773.199" width="67.8674" height="48.3376" filterUnits="userSpaceOnUse" color-interpolation-filters="sRGB">
<feFlood flood-opacity="0" result="BackgroundImageFix"/>
<feBlend mode="normal" in="SourceGraphic" in2="BackgroundImageFix" result="shape"/>
<feGaussianBlur stdDeviation="0.7" result="effect1_foregroundBlur_164_11"/>
</filter>
<filter id="filter1_f_164_11" x="1243.35" y="327.199" width="67.8674" height="48.3376" filterUnits="userSpaceOnUse" color-interpolation-filters="sRGB">
<feFlood flood-opacity="0" result="BackgroundImageFix"/>
<feBlend mode="normal" in="SourceGraphic" in2="BackgroundImageFix" result="shape"/>
<feGaussianBlur stdDeviation="0.7" result="effect1_foregroundBlur_164_11"/>
</filter>
<filter id="filter2_f_164_11" x="-533.799" y="-41.7318" width="2507.35" height="1137.35" filterUnits="userSpaceOnUse" color-interpolation-filters="sRGB">
<feFlood flood-opacity="0" result="BackgroundImageFix"/>
<feBlend mode="normal" in="SourceGraphic" in2="BackgroundImageFix" result="shape"/>
<feGaussianBlur stdDeviation="148.7" result="effect1_foregroundBlur_164_11"/>
</filter>
<filter id="filter3_f_164_11" x="899.335" y="241.336" width="346.544" height="239.827" filterUnits="userSpaceOnUse" color-interpolation-filters="sRGB">
<feFlood flood-opacity="0" result="BackgroundImageFix"/>
<feBlend mode="normal" in="SourceGraphic" in2="BackgroundImageFix" result="shape"/>
<feGaussianBlur stdDeviation="44.7" result="effect1_foregroundBlur_164_11"/>
</filter>
<filter id="filter4_f_164_11" x="250.925" y="588.925" width="299.392" height="316.014" filterUnits="userSpaceOnUse" color-interpolation-filters="sRGB">
<feFlood flood-opacity="0" result="BackgroundImageFix"/>
<feBlend mode="normal" in="SourceGraphic" in2="BackgroundImageFix" result="shape"/>
<feGaussianBlur stdDeviation="44.7" result="effect1_foregroundBlur_164_11"/>
</filter>
<filter id="filter5_f_164_11" x="122.372" y="381.373" width="235.017" height="230.098" filterUnits="userSpaceOnUse" color-interpolation-filters="sRGB">
<feFlood flood-opacity="0" result="BackgroundImageFix"/>
<feBlend mode="normal" in="SourceGraphic" in2="BackgroundImageFix" result="shape"/>
<feGaussianBlur stdDeviation="44.7" result="effect1_foregroundBlur_164_11"/>
</filter>
<filter id="filter6_f_164_11" x="898.355" y="355.199" width="67.8674" height="48.3376" filterUnits="userSpaceOnUse" color-interpolation-filters="sRGB">
<feFlood flood-opacity="0" result="BackgroundImageFix"/>
<feBlend mode="normal" in="SourceGraphic" in2="BackgroundImageFix" result="shape"/>
<feGaussianBlur stdDeviation="0.7" result="effect1_foregroundBlur_164_11"/>
</filter>
<filter id="filter7_f_164_11" x="517.355" y="555.199" width="67.8674" height="48.3376" filterUnits="userSpaceOnUse" color-interpolation-filters="sRGB">
<feFlood flood-opacity="0" result="BackgroundImageFix"/>
<feBlend mode="normal" in="SourceGraphic" in2="BackgroundImageFix" result="shape"/>
<feGaussianBlur stdDeviation="0.7" result="effect1_foregroundBlur_164_11"/>
</filter>
<filter id="filter8_f_164_11" x="173.355" y="707.199" width="67.8674" height="48.3376" filterUnits="userSpaceOnUse" color-interpolation-filters="sRGB">
<feFlood flood-opacity="0" result="BackgroundImageFix"/>
<feBlend mode="normal" in="SourceGraphic" in2="BackgroundImageFix" result="shape"/>
<feGaussianBlur stdDeviation="0.7" result="effect1_foregroundBlur_164_11"/>
</filter>
<filter id="filter9_f_164_11" x="119.355" y="433.199" width="67.8674" height="48.3376" filterUnits="userSpaceOnUse" color-interpolation-filters="sRGB">
<feFlood flood-opacity="0" result="BackgroundImageFix"/>
<feBlend mode="normal" in="SourceGraphic" in2="BackgroundImageFix" result="shape"/>
<feGaussianBlur stdDeviation="0.7" result="effect1_foregroundBlur_164_11"/>
</filter>
<filter id="filter10_f_164_11" x="67.3549" y="172.199" width="67.8674" height="48.3376" filterUnits="userSpaceOnUse" color-interpolation-filters="sRGB">
<feFlood flood-opacity="0" result="BackgroundImageFix"/>
<feBlend mode="normal" in="SourceGraphic" in2="BackgroundImageFix" result="shape"/>
<feGaussianBlur stdDeviation="0.7" result="effect1_foregroundBlur_164_11"/>
</filter>
<filter id="filter11_f_164_11" x="979.168" y="742.168" width="3" height="3.00024" filterUnits="userSpaceOnUse" color-interpolation-filters="sRGB">
<feFlood flood-opacity="0" result="BackgroundImageFix"/>
<feBlend mode="normal" in="SourceGraphic" in2="BackgroundImageFix" result="shape"/>
<feGaussianBlur stdDeviation="0.5" result="effect1_foregroundBlur_164_11"/>
</filter>
<filter id="filter12_f_164_11" x="695.168" y="778.168" width="3" height="3.00024" filterUnits="userSpaceOnUse" color-interpolation-filters="sRGB">
<feFlood flood-opacity="0" result="BackgroundImageFix"/>
<feBlend mode="normal" in="SourceGraphic" in2="BackgroundImageFix" result="shape"/>
<feGaussianBlur stdDeviation="0.5" result="effect1_foregroundBlur_164_11"/>
</filter>
<filter id="filter13_f_164_11" x="755.168" y="431.168" width="3" height="3.00024" filterUnits="userSpaceOnUse" color-interpolation-filters="sRGB">
<feFlood flood-opacity="0" result="BackgroundImageFix"/>
<feBlend mode="normal" in="SourceGraphic" in2="BackgroundImageFix" result="shape"/>
<feGaussianBlur stdDeviation="0.5" result="effect1_foregroundBlur_164_11"/>
</filter>
<filter id="filter14_f_164_11" x="215.168" y="776.168" width="3" height="3.00024" filterUnits="userSpaceOnUse" color-interpolation-filters="sRGB">
<feFlood flood-opacity="0" result="BackgroundImageFix"/>
<feBlend mode="normal" in="SourceGraphic" in2="BackgroundImageFix" result="shape"/>
<feGaussianBlur stdDeviation="0.5" result="effect1_foregroundBlur_164_11"/>
</filter>
<filter id="filter15_f_164_11" x="274.168" y="393.168" width="3" height="3.00024" filterUnits="userSpaceOnUse" color-interpolation-filters="sRGB">
<feFlood flood-opacity="0" result="BackgroundImageFix"/>
<feBlend mode="normal" in="SourceGraphic" in2="BackgroundImageFix" result="shape"/>
<feGaussianBlur stdDeviation="0.5" result="effect1_foregroundBlur_164_11"/>
</filter>
<filter id="filter16_f_164_11" x="312.168" y="432.168" width="3" height="3.00024" filterUnits="userSpaceOnUse" color-interpolation-filters="sRGB">
<feFlood flood-opacity="0" result="BackgroundImageFix"/>
<feBlend mode="normal" in="SourceGraphic" in2="BackgroundImageFix" result="shape"/>
<feGaussianBlur stdDeviation="0.5" result="effect1_foregroundBlur_164_11"/>
</filter>
<filter id="filter17_f_164_11" x="1102.17" y="754.168" width="3" height="3.00024" filterUnits="userSpaceOnUse" color-interpolation-filters="sRGB">
<feFlood flood-opacity="0" result="BackgroundImageFix"/>
<feBlend mode="normal" in="SourceGraphic" in2="BackgroundImageFix" result="shape"/>
<feGaussianBlur stdDeviation="0.5" result="effect1_foregroundBlur_164_11"/>
</filter>
<filter id="filter18_f_164_11" x="818.168" y="790.168" width="3" height="3.00024" filterUnits="userSpaceOnUse" color-interpolation-filters="sRGB">
<feFlood flood-opacity="0" result="BackgroundImageFix"/>
<feBlend mode="normal" in="SourceGraphic" in2="BackgroundImageFix" result="shape"/>
<feGaussianBlur stdDeviation="0.5" result="effect1_foregroundBlur_164_11"/>
</filter>
<filter id="filter19_f_164_11" x="626.168" y="435.168" width="3" height="3.00024" filterUnits="userSpaceOnUse" color-interpolation-filters="sRGB">
<feFlood flood-opacity="0" result="BackgroundImageFix"/>
<feBlend mode="normal" in="SourceGraphic" in2="BackgroundImageFix" result="shape"/>
<feGaussianBlur stdDeviation="0.5" result="effect1_foregroundBlur_164_11"/>
</filter>
<filter id="filter20_f_164_11" x="338.168" y="788.168" width="3" height="3.00024" filterUnits="userSpaceOnUse" color-interpolation-filters="sRGB">
<feFlood flood-opacity="0" result="BackgroundImageFix"/>
<feBlend mode="normal" in="SourceGraphic" in2="BackgroundImageFix" result="shape"/>
<feGaussianBlur stdDeviation="0.5" result="effect1_foregroundBlur_164_11"/>
</filter>
<filter id="filter21_f_164_11" x="1163.17" y="626.168" width="3" height="3.00024" filterUnits="userSpaceOnUse" color-interpolation-filters="sRGB">
<feFlood flood-opacity="0" result="BackgroundImageFix"/>
<feBlend mode="normal" in="SourceGraphic" in2="BackgroundImageFix" result="shape"/>
<feGaussianBlur stdDeviation="0.5" result="effect1_foregroundBlur_164_11"/>
</filter>
<filter id="filter22_f_164_11" x="879.168" y="662.168" width="3" height="3.00024" filterUnits="userSpaceOnUse" color-interpolation-filters="sRGB">
<feFlood flood-opacity="0" result="BackgroundImageFix"/>
<feBlend mode="normal" in="SourceGraphic" in2="BackgroundImageFix" result="shape"/>
<feGaussianBlur stdDeviation="0.5" result="effect1_foregroundBlur_164_11"/>
</filter>
<filter id="filter23_f_164_11" x="939.168" y="315.168" width="3" height="3.00024" filterUnits="userSpaceOnUse" color-interpolation-filters="sRGB">
<feFlood flood-opacity="0" result="BackgroundImageFix"/>
<feBlend mode="normal" in="SourceGraphic" in2="BackgroundImageFix" result="shape"/>
<feGaussianBlur stdDeviation="0.5" result="effect1_foregroundBlur_164_11"/>
</filter>
<filter id="filter24_f_164_11" x="399.168" y="660.168" width="3" height="3.00024" filterUnits="userSpaceOnUse" color-interpolation-filters="sRGB">
<feFlood flood-opacity="0" result="BackgroundImageFix"/>
<feBlend mode="normal" in="SourceGraphic" in2="BackgroundImageFix" result="shape"/>
<feGaussianBlur stdDeviation="0.5" result="effect1_foregroundBlur_164_11"/>
</filter>
<filter id="filter25_f_164_11" x="1008.28" y="716.279" width="5.8" height="5.80049" filterUnits="userSpaceOnUse" color-interpolation-filters="sRGB">
<feFlood flood-opacity="0" result="BackgroundImageFix"/>
<feBlend mode="normal" in="SourceGraphic" in2="BackgroundImageFix" result="shape"/>
<feGaussianBlur stdDeviation="0.95" result="effect1_foregroundBlur_164_11"/>
</filter>
<filter id="filter26_f_164_11" x="724.28" y="752.279" width="5.8" height="5.80049" filterUnits="userSpaceOnUse" color-interpolation-filters="sRGB">
<feFlood flood-opacity="0" result="BackgroundImageFix"/>
<feBlend mode="normal" in="SourceGraphic" in2="BackgroundImageFix" result="shape"/>
<feGaussianBlur stdDeviation="0.95" result="effect1_foregroundBlur_164_11"/>
</filter>
<filter id="filter27_f_164_11" x="1099.28" y="324.279" width="5.8" height="5.80049" filterUnits="userSpaceOnUse" color-interpolation-filters="sRGB">
<feFlood flood-opacity="0" result="BackgroundImageFix"/>
<feBlend mode="normal" in="SourceGraphic" in2="BackgroundImageFix" result="shape"/>
<feGaussianBlur stdDeviation="0.95" result="effect1_foregroundBlur_164_11"/>
</filter>
<filter id="filter28_f_164_11" x="784.28" y="405.279" width="5.8" height="5.80049" filterUnits="userSpaceOnUse" color-interpolation-filters="sRGB">
<feFlood flood-opacity="0" result="BackgroundImageFix"/>
<feBlend mode="normal" in="SourceGraphic" in2="BackgroundImageFix" result="shape"/>
<feGaussianBlur stdDeviation="0.95" result="effect1_foregroundBlur_164_11"/>
</filter>
<filter id="filter29_f_164_11" x="244.28" y="750.279" width="5.8" height="5.80049" filterUnits="userSpaceOnUse" color-interpolation-filters="sRGB">
<feFlood flood-opacity="0" result="BackgroundImageFix"/>
<feBlend mode="normal" in="SourceGraphic" in2="BackgroundImageFix" result="shape"/>
<feGaussianBlur stdDeviation="0.95" result="effect1_foregroundBlur_164_11"/>
</filter>
<filter id="filter30_f_164_11" x="269.28" y="464.279" width="5.8" height="5.80049" filterUnits="userSpaceOnUse" color-interpolation-filters="sRGB">
<feFlood flood-opacity="0" result="BackgroundImageFix"/>
<feBlend mode="normal" in="SourceGraphic" in2="BackgroundImageFix" result="shape"/>
<feGaussianBlur stdDeviation="0.95" result="effect1_foregroundBlur_164_11"/>
</filter>
<filter id="filter31_f_164_11" x="1101.28" y="601.279" width="5.8" height="5.80049" filterUnits="userSpaceOnUse" color-interpolation-filters="sRGB">
<feFlood flood-opacity="0" result="BackgroundImageFix"/>
<feBlend mode="normal" in="SourceGraphic" in2="BackgroundImageFix" result="shape"/>
<feGaussianBlur stdDeviation="0.95" result="effect1_foregroundBlur_164_11"/>
</filter>
<filter id="filter32_f_164_11" x="817.28" y="637.279" width="5.8" height="5.80049" filterUnits="userSpaceOnUse" color-interpolation-filters="sRGB">
<feFlood flood-opacity="0" result="BackgroundImageFix"/>
<feBlend mode="normal" in="SourceGraphic" in2="BackgroundImageFix" result="shape"/>
<feGaussianBlur stdDeviation="0.95" result="effect1_foregroundBlur_164_11"/>
</filter>
<filter id="filter33_f_164_11" x="625.28" y="282.279" width="5.8" height="5.80049" filterUnits="userSpaceOnUse" color-interpolation-filters="sRGB">
<feFlood flood-opacity="0" result="BackgroundImageFix"/>
<feBlend mode="normal" in="SourceGraphic" in2="BackgroundImageFix" result="shape"/>
<feGaussianBlur stdDeviation="0.95" result="effect1_foregroundBlur_164_11"/>
</filter>
<filter id="filter34_f_164_11" x="446.28" y="200.279" width="5.8" height="5.80049" filterUnits="userSpaceOnUse" color-interpolation-filters="sRGB">
<feFlood flood-opacity="0" result="BackgroundImageFix"/>
<feBlend mode="normal" in="SourceGraphic" in2="BackgroundImageFix" result="shape"/>
<feGaussianBlur stdDeviation="0.95" result="effect1_foregroundBlur_164_11"/>
</filter>
<filter id="filter35_f_164_11" x="337.28" y="635.279" width="5.8" height="5.80049" filterUnits="userSpaceOnUse" color-interpolation-filters="sRGB">
<feFlood flood-opacity="0" result="BackgroundImageFix"/>
<feBlend mode="normal" in="SourceGraphic" in2="BackgroundImageFix" result="shape"/>
<feGaussianBlur stdDeviation="0.95" result="effect1_foregroundBlur_164_11"/>
</filter>
<filter id="filter36_f_164_11" x="1131.28" y="728.279" width="5.8" height="5.80049" filterUnits="userSpaceOnUse" color-interpolation-filters="sRGB">
<feFlood flood-opacity="0" result="BackgroundImageFix"/>
<feBlend mode="normal" in="SourceGraphic" in2="BackgroundImageFix" result="shape"/>
<feGaussianBlur stdDeviation="0.95" result="effect1_foregroundBlur_164_11"/>
</filter>
<filter id="filter37_f_164_11" x="847.28" y="764.279" width="5.8" height="5.80049" filterUnits="userSpaceOnUse" color-interpolation-filters="sRGB">
<feFlood flood-opacity="0" result="BackgroundImageFix"/>
<feBlend mode="normal" in="SourceGraphic" in2="BackgroundImageFix" result="shape"/>
<feGaussianBlur stdDeviation="0.95" result="effect1_foregroundBlur_164_11"/>
</filter>
<filter id="filter38_f_164_11" x="907.28" y="417.279" width="5.8" height="5.80049" filterUnits="userSpaceOnUse" color-interpolation-filters="sRGB">
<feFlood flood-opacity="0" result="BackgroundImageFix"/>
<feBlend mode="normal" in="SourceGraphic" in2="BackgroundImageFix" result="shape"/>
<feGaussianBlur stdDeviation="0.95" result="effect1_foregroundBlur_164_11"/>
</filter>
<filter id="filter39_f_164_11" x="367.28" y="762.279" width="5.8" height="5.80049" filterUnits="userSpaceOnUse" color-interpolation-filters="sRGB">
<feFlood flood-opacity="0" result="BackgroundImageFix"/>
<feBlend mode="normal" in="SourceGraphic" in2="BackgroundImageFix" result="shape"/>
<feGaussianBlur stdDeviation="0.95" result="effect1_foregroundBlur_164_11"/>
</filter>
<filter id="filter40_f_164_11" x="271.28" y="393.279" width="5.8" height="5.80049" filterUnits="userSpaceOnUse" color-interpolation-filters="sRGB">
<feFlood flood-opacity="0" result="BackgroundImageFix"/>
<feBlend mode="normal" in="SourceGraphic" in2="BackgroundImageFix" result="shape"/>
<feGaussianBlur stdDeviation="0.95" result="effect1_foregroundBlur_164_11"/>
</filter>
<radialGradient id="paint0_diamond_164_11" cx="0" cy="0" r="1" gradientUnits="userSpaceOnUse" gradientTransform="translate(719.876 526.943) scale(992 62.8532)">
<stop stop-color="#374765" stop-opacity="0.42"/>
<stop offset="1" stop-color="#6F8FCB" stop-opacity="0.42"/>
</radialGradient>
</defs>
</svg>
